<svg t="1669791117055" class="icon" viewBox="0 0 1024 1024" version="1.1" xmlns="http://www.w3.org/2000/svg" p-id="5468" width="200" height="200"><path d="M346.396444 310.840889c18.375111 0 33.223111-14.848 33.223111-33.223111L379.619556 144.611556c0-18.375111-14.904889-33.223111-33.223111-33.223111-18.375111 0-33.223111 14.848-33.223111 33.223111l0 132.949333C313.173333 295.992889 328.021333 310.840889 346.396444 310.840889zM512.568889 310.840889c18.375111 0 33.223111-14.848 33.223111-33.223111L545.792 144.611556c0-18.375111-14.848-33.223111-33.223111-33.223111-18.375111 0-33.223111 14.904889-33.223111 33.223111l0 132.949333C479.345778 295.992889 494.250667 310.840889 512.568889 310.840889zM412.899556 175.104l33.223111 0 0 66.446222-33.223111 0 0-66.446222ZM579.128889 175.104l33.223111 0 0 66.446222-33.223111 0 0-66.446222ZM911.36 811.121778l0-539.875556c0.113778-55.125333-44.657778-99.726222-99.669333-99.726222L745.244444 171.52l0 66.446222 66.446222 0c18.318222 0 33.336889 14.904889 33.336889 33.223111l0 539.932444c0 18.318222-15.018667 33.28-33.336889 33.28L213.447111 844.401778c-18.261333 0-33.223111-14.961778-33.223111-33.28L179.712 811.121778l0.512-539.875556c0-18.318222 14.904889-33.223111 33.223111-33.223111L279.893333 238.023111 279.893333 171.52 213.447111 171.52C158.435556 171.52 113.777778 216.120889 113.777778 271.246222l0 539.875556c0 55.239111 44.657778 99.726222 99.669333 99.726222l598.243556 0c53.418667 0 96.654222-41.927111 99.271111-94.776889 0.056889-0.284444 0.398222-0.625778 0.398222-0.910222l0-2.958222c0-0.398222 0.113778-0.739556 0.113778-1.137778L911.36 811.064889zM678.798222 310.840889c18.318222 0 33.223111-14.848 33.223111-33.223111L712.021333 144.611556c0-18.375111-14.904889-33.223111-33.223111-33.223111s-33.223111 14.848-33.223111 33.223111l0 132.949333C645.575111 295.992889 660.309333 310.840889 678.798222 310.840889zM312.604444 444.302222l398.848 0c18.204444 0 33.223111-14.904889 33.223111-33.223111 0-18.375111-15.018667-33.223111-33.223111-33.223111L312.604444 377.856c-18.375111 0-33.223111 14.848-33.223111 33.223111C279.381333 429.397333 294.229333 444.302222 312.604444 444.302222zM711.452444 541.866667 312.604444 541.866667c-18.375111 0-33.223111 14.904889-33.223111 33.223111s14.848 33.223111 33.223111 33.223111l398.848 0c18.204444 0 33.223111-14.904889 33.223111-33.223111S729.656889 541.866667 711.452444 541.866667zM711.452444 712.305778 312.604444 712.305778c-18.375111 0-33.223111 14.904889-33.223111 33.109333 0 18.375111 14.848 33.336889 33.223111 33.336889l398.848 0c18.204444 0 33.223111-14.961778 33.223111-33.336889C744.675556 727.153778 729.656889 712.305778 711.452444 712.305778z" p-id="5469"></path></svg>
